<svg width="489" height="309" viewBox="0 0 489 309" fill="none" xmlns="http://www.w3.org/2000/svg">
<path d="M489 54.7723C489.017 43.9511 485.943 33.368 480.169 24.3626C474.395 15.3573 466.18 8.33454 456.564 4.18348C446.947 0.0324123 436.362 -1.06037 426.147 1.04342C415.933 3.14721 406.548 8.35301 399.182 16.0018L322.754 95.4255C320.638 97.633 317.938 99.1378 314.998 99.7494C312.058 100.361 309.009 100.052 306.238 98.8609C303.467 97.67 301.099 95.6511 299.433 93.06C297.767 90.469 296.88 87.4223 296.882 84.3062V54.89C296.898 44.0688 293.825 33.4856 288.051 24.4803C282.277 15.4749 274.062 8.45223 264.446 4.30117C254.829 0.150102 244.244 -0.942723 234.029 1.16107C223.815 3.26486 214.43 8.47065 207.064 16.1195L15.2573 215.326C5.45698 225.596 -0.029002 239.482 0.000115317 253.946C0.0292326 268.41 5.57121 282.272 15.4128 292.5C25.2545 302.727 38.5942 308.486 52.5123 308.516C66.4304 308.546 79.7933 302.845 89.676 292.661L165.793 213.561C167.916 211.366 170.617 209.873 173.556 209.271C176.494 208.668 179.538 208.983 182.305 210.175C185.071 211.367 187.436 213.383 189.102 215.97C190.768 218.556 191.66 221.597 191.665 224.71V254.302C191.657 265.145 194.753 275.745 200.558 284.754C206.363 293.764 214.615 300.775 224.266 304.897C233.916 309.019 244.528 310.064 254.752 307.901C264.976 305.738 274.35 300.464 281.681 292.749L357.402 213.973C359.506 211.777 362.187 210.276 365.109 209.658C368.031 209.04 371.064 209.332 373.827 210.497C376.59 211.662 378.96 213.65 380.641 216.209C382.321 218.769 383.237 221.788 383.274 224.886L383.699 254.302C383.705 261.707 385.159 269.034 387.972 275.837C390.784 282.641 394.897 288.78 400.061 293.882C405.225 298.985 411.333 302.944 418.013 305.52C424.694 308.096 431.808 309.236 438.925 308.869C467.232 307.487 489 282.159 489 252.714V54.7723ZM436.378 287.484C430.064 287.478 423.893 285.527 418.646 281.877C413.399 278.228 409.311 273.044 406.898 266.98C404.486 260.916 403.858 254.246 405.093 247.811C406.328 241.376 409.371 235.467 413.838 230.829C418.304 226.192 423.994 223.034 430.187 221.756C436.38 220.478 442.799 221.137 448.632 223.649C454.464 226.162 459.449 230.415 462.957 235.871C466.464 241.327 468.336 247.741 468.336 254.302C468.336 258.662 467.509 262.979 465.903 267.007C464.296 271.035 461.942 274.694 458.974 277.775C456.006 280.857 452.483 283.301 448.605 284.966C444.728 286.632 440.573 287.488 436.378 287.484Z" fill="#EA0000"/>
</svg>
